<?xml version="1.0" encoding="UTF-8"?>
<svg version="1.1" xmlns="http://www.w3.org/2000/svg" width="512" height="512">
<path d="M0 0 C2.61528918 -0.00542995 5.23057531 -0.01255748 7.84585571 -0.02124023 C14.17330467 -0.03890048 20.50056239 -0.03524186 26.82801843 -0.02358967 C31.97670051 -0.01450588 37.12532951 -0.01335255 42.27401733 -0.01768494 C43.01060253 -0.01829787 43.74718772 -0.0189108 44.50609368 -0.01954231 C46.00308618 -0.02082138 47.50007867 -0.02211824 48.99707115 -0.02343267 C62.98974297 -0.03480185 76.98230948 -0.02178256 90.97496402 -0.00023121 C102.94592713 0.01763645 114.916735 0.01453131 126.88769531 -0.00390625 C140.83493631 -0.02537802 154.78208533 -0.03370356 168.72934055 -0.0214572 C170.22040874 -0.02018318 171.71147695 -0.01892569 173.20254517 -0.01768494 C173.93591982 -0.01706783 174.66929448 -0.01645073 175.4248926 -0.01581493 C180.55927526 -0.01238088 185.6935989 -0.01814806 190.82797241 -0.02760315 C197.75570671 -0.04008201 204.68314533 -0.03102616 211.61085129 -0.00802612 C214.14188531 -0.0027711 216.67294414 -0.00419724 219.20396805 -0.01307678 C249.54772328 -0.1096553 274.54728811 6.65561125 296.73828125 28.51757812 C315.39103433 47.13919138 324.2108255 71.1402006 324.28039551 97.13613892 C324.27262278 98.9364642 324.26443039 100.73678771 324.25585938 102.53710938 C324.26129473 104.48245768 324.26842523 106.42780187 324.27709961 108.37313843 C324.29516795 113.6046161 324.28833431 118.83577444 324.27558327 124.06725693 C324.26536932 129.57389865 324.27487203 135.08051526 324.28112793 140.5871582 C324.2883801 149.82996467 324.27888073 159.07264277 324.25976562 168.31542969 C324.23800167 178.96113658 324.24505476 189.60653689 324.26707125 200.25223637 C324.28529482 209.43581016 324.28774971 218.61929232 324.27731657 227.80287838 C324.27111973 233.26883395 324.27014001 238.73464601 324.28346252 244.20059204 C324.29512227 249.34235419 324.28681275 254.48372581 324.2638855 259.62544632 C324.25865198 261.4985553 324.26001868 263.37169787 324.26893616 265.24479294 C324.38986015 293.2533102 315.64208826 317.31421549 295.73828125 337.51757812 C275.51007507 357.77961074 250.66987948 365.00429021 222.80435181 365.05969238 C220.36175405 365.05191805 217.9191576 365.04372556 215.4765625 365.03515625 C212.86127332 365.0405862 210.24598719 365.04771373 207.63070679 365.05639648 C201.30325783 365.07405673 194.97600011 365.07039811 188.64854407 365.05874592 C183.49986199 365.04966213 178.35123299 365.0485088 173.20254517 365.05284119 C172.09766737 365.05376058 172.09766737 365.05376058 170.97046882 365.05469856 C169.47347632 365.05597763 167.97648383 365.05727449 166.47949135 365.05858892 C152.48681953 365.0699581 138.49425302 365.05693881 124.50159848 365.03538746 C112.53063537 365.0175198 100.5598275 365.02062494 88.58886719 365.0390625 C74.64162619 365.06053427 60.69447717 365.06885981 46.74722195 365.05661345 C45.25615376 365.05533943 43.76508555 365.05408194 42.27401733 365.05284119 C41.54064268 365.05222408 40.80726802 365.05160698 40.0516699 365.05097118 C34.91728724 365.04753713 29.7829636 365.05330431 24.64859009 365.0627594 C17.72085579 365.07523826 10.79341717 365.06618241 3.86571121 365.04318237 C1.33467719 365.03792735 -1.19638164 365.03935349 -3.72740555 365.04823303 C-34.07116078 365.14481155 -59.07072561 358.379545 -81.26171875 336.51757812 C-99.91447183 317.89596487 -108.734263 293.89495565 -108.80383301 267.89901733 C-108.79606028 266.09869205 -108.78786789 264.29836854 -108.77929688 262.49804688 C-108.78473223 260.55269857 -108.79186273 258.60735438 -108.80053711 256.66201782 C-108.81860545 251.43054015 -108.81177181 246.19938181 -108.79902077 240.96789932 C-108.78880682 235.4612576 -108.79830953 229.95464099 -108.80456543 224.44799805 C-108.8118176 215.20519158 -108.80231823 205.96251348 -108.78320312 196.71972656 C-108.76143917 186.07401967 -108.76849226 175.42861936 -108.79050875 164.78291988 C-108.80873232 155.59934609 -108.81118721 146.41586393 -108.80075407 137.23227787 C-108.79455723 131.7663223 -108.79357751 126.30051024 -108.80690002 120.83456421 C-108.81855977 115.69280206 -108.81025025 110.55143044 -108.787323 105.40970993 C-108.78208948 103.53660095 -108.78345618 101.66345838 -108.79237366 99.79036331 C-108.91329765 71.78184605 -100.16552576 47.72094076 -80.26171875 27.51757812 C-57.55506189 4.77295027 -30.73746 -0.10783562 0 0 Z " fill="#DD332F" transform="translate(148.26171875,73.482421875)"/>
<path d="M0 0 C142.56 0 285.12 0 432 0 C432 35.38144907 426.57890971 58.38333292 401.6640625 83.33984375 C379.33499224 104.47658501 353.12712631 108.62068242 323.73828125 108.51757812 C321.12299207 108.52300808 318.50770594 108.53013561 315.89242554 108.53881836 C309.56497658 108.5564786 303.23771886 108.55281998 296.91026282 108.5411678 C291.76158074 108.53208401 286.61295174 108.53093067 281.46426392 108.53526306 C280.35938612 108.53618246 280.35938612 108.53618246 279.23218757 108.53712043 C277.73519507 108.53839951 276.23820258 108.53969637 274.7412101 108.5410108 C260.74853828 108.55237998 246.75597177 108.53936068 232.76331723 108.51780933 C220.79235412 108.49994167 208.82154625 108.50304682 196.85058594 108.52148438 C182.90334494 108.54295614 168.95619592 108.55128169 155.0089407 108.53903532 C153.51787251 108.53776131 152.0268043 108.53650382 150.53573608 108.53526306 C149.80236143 108.53464596 149.06898677 108.53402886 148.31338865 108.53339306 C143.17900599 108.529959 138.04468235 108.53572618 132.91030884 108.54518127 C125.98257454 108.55766013 119.05513592 108.54860429 112.12742996 108.52560425 C109.59639594 108.52034923 107.06533711 108.52177537 104.5343132 108.53065491 C74.19055797 108.62723343 49.19099314 101.86196688 27 80 C12.03641204 65.06139299 3.63369155 46.68409036 0 26 C0 17.42 0 8.84 0 0 Z " fill="#F8EC2D" transform="translate(40,330)"/>
<path d="M0 0 C2.61528918 -0.00542995 5.23057531 -0.01255748 7.84585571 -0.02124023 C14.17330467 -0.03890048 20.50056239 -0.03524186 26.82801843 -0.02358967 C31.97670051 -0.01450588 37.12532951 -0.01335255 42.27401733 -0.01768494 C43.01060253 -0.01829787 43.74718772 -0.0189108 44.50609368 -0.01954231 C46.00308618 -0.02082138 47.50007867 -0.02211824 48.99707115 -0.02343267 C62.98974297 -0.03480185 76.98230948 -0.02178256 90.97496402 -0.00023121 C102.94592713 0.01763645 114.916735 0.01453131 126.88769531 -0.00390625 C140.83493631 -0.02537802 154.78208533 -0.03370356 168.72934055 -0.0214572 C170.22040874 -0.02018318 171.71147695 -0.01892569 173.20254517 -0.01768494 C173.93591982 -0.01706783 174.66929448 -0.01645073 175.4248926 -0.01581493 C180.55927526 -0.01238088 185.6935989 -0.01814806 190.82797241 -0.02760315 C197.75570671 -0.04008201 204.68314533 -0.03102616 211.61085129 -0.00802612 C214.14188531 -0.0027711 216.67294414 -0.00419724 219.20396805 -0.01307678 C249.54772328 -0.1096553 274.54728811 6.65561125 296.73828125 28.51757812 C311.72768128 43.48195412 320.05861239 61.8548222 323.73828125 82.51757812 C323.73828125 90.43757813 323.73828125 98.35757813 323.73828125 106.51757812 C181.17828125 106.51757812 38.61828125 106.51757812 -108.26171875 106.51757812 C-108.26171875 72.17356943 -102.13052766 49.42295695 -77.92578125 25.17773438 C-55.59671099 4.04099311 -29.38884506 -0.1031043 0 0 Z " fill="#282A2B" transform="translate(148.26171875,73.482421875)"/>
</svg>
