<?xml version="1.0" encoding="UTF-8"?>
<svg version="1.1" xmlns="http://www.w3.org/2000/svg" width="512" height="512">
<path d="M0 0 C1.53016692 -0.00702247 3.06033354 -0.01410928 4.59049988 -0.02125549 C9.45486879 -0.04065826 14.31919005 -0.04568977 19.18359375 -0.046875 C20.4269323 -0.04753778 20.4269323 -0.04753778 21.69538879 -0.04821396 C46.04016169 -0.05502026 70.2486629 0.10736152 94.45892334 2.94989014 C96.72521688 3.21531997 98.99259166 3.46969127 101.26025391 3.72314453 C207.36264438 15.73236345 207.36264438 15.73236345 241.27734375 58.015625 C252.10456834 72.74065044 258.55574906 88.3226252 262.12109375 106.203125 C262.26350494 106.89710388 262.40591614 107.59108276 262.55264282 108.30609131 C271.06326617 149.83765287 276.70669068 192.59027018 276.82421875 235.01953125 C276.83123975 236.59467599 276.83832658 238.16982043 276.84547424 239.7449646 C276.86487938 244.75185555 276.86990821 249.75870024 276.87109375 254.765625 C276.87153561 255.61812458 276.87197746 256.47062416 276.87243271 257.34895706 C276.87933937 282.74706487 276.65348181 307.95463352 273.62109375 333.203125 C273.44225226 334.74070748 273.26354514 336.27830559 273.08496094 337.81591797 C270.49901873 359.76688363 266.88338552 381.51902358 262.62109375 403.203125 C262.43160156 404.17910645 262.24210937 405.15508789 262.046875 406.16064453 C255.91151975 437.33908984 238.77117802 463.47485814 212.30859375 481.390625 C180.59278796 502.17172011 135.8891631 504.85088831 98.94012451 508.94598389 C97.42897371 509.11354484 95.91809125 509.28354956 94.40753174 509.45635986 C46.64119336 514.90204238 -4.45196078 515.14812335 -52.20904541 509.45959473 C-54.52298519 509.18609539 -56.83817162 508.92571154 -59.15380859 508.66699219 C-165.33719924 496.70309937 -165.33719924 496.70309937 -196.74169922 458.54736328 C-233.11942645 412.82720282 -235.44345569 334.16896721 -235.58203125 277.9140625 C-235.58485863 277.1156255 -235.587686 276.31718849 -235.59059906 275.49455643 C-235.60547033 271.24913475 -235.61476944 267.00374584 -235.61914062 262.75830078 C-235.62347415 259.34412651 -235.63718182 255.93021227 -235.66015625 252.51611328 C-235.78268959 233.90159592 -235.51027151 215.41742266 -234.0078125 196.85546875 C-233.94639824 196.09506161 -233.88498398 195.33465446 -233.82170868 194.55120468 C-223.91578634 74.801448 -223.91578634 74.801448 -181.4921875 38.75 C-175.81096958 34.12155163 -169.84178157 30.06601743 -163.50390625 26.390625 C-162.91730225 26.04193359 -162.33069824 25.69324219 -161.72631836 25.33398438 C-150.14460096 18.87834893 -136.89694458 16.17282783 -124.00390625 13.703125 C-123.25257416 13.55660492 -122.50124207 13.41008484 -121.72714233 13.25912476 C-95.13558839 8.08096933 -68.49696599 4.55889669 -41.53125 2 C-40.84370636 1.93356796 -40.15616272 1.86713593 -39.44778442 1.7986908 C-26.29946029 0.58526483 -13.20059474 0.03769699 0 0 Z " fill="#F1F1F1" transform="translate(235.37890625,-0.203125)"/>
<path d="M0 0 C165.66 0 331.32 0 502 0 C500.84848917 18.42417332 500.84848917 18.42417332 499.546875 25.9765625 C499.40649811 26.82731857 499.26612122 27.67807465 499.12149048 28.55461121 C498.67381799 31.24644307 498.21319687 33.93579945 497.75 36.625 C497.51473602 38.00998184 497.51473602 38.00998184 497.27471924 39.42294312 C490.60758029 78.62135631 480.5252164 113.06066605 446.48828125 137.57421875 C413.74405287 160.4423241 368.12808675 163.44161589 329.31903076 167.74285889 C327.80787996 167.91041984 326.2969975 168.08042456 324.78643799 168.25323486 C277.02009961 173.69891738 225.92694547 173.94499835 178.16986084 168.25646973 C175.85592106 167.98297039 173.54073463 167.72258654 171.22509766 167.46386719 C65.04170701 155.49997437 65.04170701 155.49997437 33.63720703 117.34423828 C11.64237895 89.7007557 7.35851642 57.06125631 2.125 23.0625 C2.01559082 22.3607666 1.90618164 21.6590332 1.79345703 20.93603516 C1.48275074 18.92850366 1.1826028 16.91934686 0.8828125 14.91015625 C0.71152832 13.76683838 0.54024414 12.62352051 0.36376953 11.44555664 C-0.03700011 7.64954194 0 3.81711198 0 0 Z " fill="#74ACDF" transform="translate(5,341)"/>
<path d="M0 0 C1.53016692 -0.00702247 3.06033354 -0.01410928 4.59049988 -0.02125549 C9.45486879 -0.04065826 14.31919005 -0.04568977 19.18359375 -0.046875 C20.4269323 -0.04753778 20.4269323 -0.04753778 21.69538879 -0.04821396 C46.04016169 -0.05502026 70.2486629 0.10736152 94.45892334 2.94989014 C96.72521688 3.21531997 98.99259166 3.46969127 101.26025391 3.72314453 C207.36264438 15.73236345 207.36264438 15.73236345 241.27734375 58.015625 C252.10638652 72.74312317 258.55017859 88.32168165 262.12109375 106.203125 C262.2621756 106.88680145 262.40325745 107.57047791 262.5486145 108.27487183 C265.07896298 120.54429727 267.13692214 132.88786763 269.05859375 145.265625 C269.25606201 146.52789917 269.25606201 146.52789917 269.45751953 147.81567383 C269.83128378 150.22624057 270.19511573 152.63806055 270.5546875 155.05078125 C270.66368881 155.75783707 270.77269012 156.46489288 270.88499451 157.19337463 C271.58171199 162.00067146 271.62109375 166.24608391 271.62109375 171.203125 C105.96109375 171.203125 -59.69890625 171.203125 -230.37890625 171.203125 C-229.22631053 152.76159342 -229.22631053 152.76159342 -227.9609375 145.33203125 C-227.82329483 144.48943253 -227.68565216 143.6468338 -227.5438385 142.77870178 C-227.10305601 140.10588164 -226.64878611 137.43565142 -226.19140625 134.765625 C-226.03617493 133.84747009 -225.8809436 132.92931519 -225.7210083 131.9833374 C-218.60487799 90.0369175 -218.60487799 90.0369175 -211.37890625 76.203125 C-210.89035156 75.25308594 -210.40179688 74.30304688 -209.8984375 73.32421875 C-199.0605535 53.57919018 -182.92388955 37.65245268 -163.50390625 26.390625 C-162.91730225 26.04193359 -162.33069824 25.69324219 -161.72631836 25.33398438 C-150.14460096 18.87834893 -136.89694458 16.17282783 -124.00390625 13.703125 C-123.25257416 13.55660492 -122.50124207 13.41008484 -121.72714233 13.25912476 C-95.13558839 8.08096933 -68.49696599 4.55889669 -41.53125 2 C-40.84370636 1.93356796 -40.15616272 1.86713593 -39.44778442 1.7986908 C-26.29946029 0.58526483 -13.20059474 0.03769699 0 0 Z " fill="#74ACDF" transform="translate(235.37890625,-0.203125)"/>
<path d="M0 0 C4.72262341 1.42618103 7.95570883 3.33374835 10.5 7.625 C12 11 12 11 12 13 C16.54170996 11.09115308 16.54170996 11.09115308 21 9 C26.0111158 8.45021931 29.89696493 8.43845487 34.4375 10.75 C39.59032958 15.27443573 41.0045385 18.91225324 41.5625 25.6875 C41.64628906 26.68136719 41.73007812 27.67523438 41.81640625 28.69921875 C41.87699219 29.45847656 41.93757813 30.21773437 42 31 C42.58007812 31.02578125 43.16015625 31.0515625 43.7578125 31.078125 C49.2245184 31.47504754 52.71667617 32.31434926 57 36 C60.42424573 39.96491611 61.59695084 42.9172837 61.33203125 48.0390625 C60.64341181 52.10596792 58.8787822 55.1212178 56 58 C55.7886547 60.3912295 55.7886547 60.3912295 57 63 C58.71120229 64.70283455 60.50013764 66.1876069 62.40625 67.66796875 C64.57152566 69.47767218 64.9588697 70.58734851 65.23828125 73.390625 C65.395433 79.4451031 65.31134189 83.33908985 61 88 C57.86623589 90.24988192 54.6078141 91.65995476 51 93 C51.65585189 96.60992379 51.65585189 96.60992379 53 100 C53.37381854 105.60727817 53.18490827 109.16772538 50 114 C45.00109961 118.51120279 41.9437119 119.14127607 35.375 119.0625 C34.66859375 119.05798828 33.9621875 119.05347656 33.234375 119.04882812 C31.48954725 119.03703875 29.744763 119.01910324 28 119 C27.90203125 119.59167969 27.8040625 120.18335938 27.703125 120.79296875 C26.51448413 127.07432096 24.8320057 130.65348099 19.8125 134.8125 C15.81209974 136.50155789 12.27875484 136.69426005 8 136 C4.90794522 134.33945206 2.72197153 132.83748697 0.4375 130.1875 C-0.98638247 128.75453528 -0.98638247 128.75453528 -3.3125 129 C-6.94077919 130.35005737 -9.07698165 132.45824492 -12 135 C-15.77780124 136.25926708 -19.09428219 136.73535717 -23 136 C-27.02001978 133.90198618 -30.16684072 131.44897266 -32.4375 127.5 C-33.07169882 124.68133856 -33.53400358 121.85080163 -34 119 C-35.07378906 119.06960938 -36.14757812 119.13921875 -37.25390625 119.2109375 C-50.20730766 119.80193834 -50.20730766 119.80193834 -54.375 116.3125 C-57.82577201 112.44727496 -59.06931036 109.08239985 -59.25 103.9375 C-59.02601557 100.40974517 -58.72846789 98.91678957 -57 96 C-57 95.01 -57 94.02 -57 93 C-57.60328125 92.76925781 -58.2065625 92.53851563 -58.828125 92.30078125 C-64.61515809 89.93929839 -68.11912519 87.76174962 -71 82 C-71.59827055 77.43345389 -72.06615613 72.90963408 -69.765625 68.7890625 C-67.38031911 65.99046103 -65.07116031 64.04744021 -62 62 C-62.37475725 58.72087409 -62.75793797 57.25673245 -65.0625 54.8125 C-67.92285946 50.6603653 -67.77816514 46.89693821 -67 42 C-64.81685374 37.63370748 -62.21941497 34.47661313 -58 32 C-54.6720724 31.39166915 -51.37798693 31.13118396 -48 31 C-47.96261719 30.27554688 -47.92523438 29.55109375 -47.88671875 28.8046875 C-47.3861231 21.44298678 -46.46443918 16.76498054 -41.4375 11.125 C-38.01577637 8.5143516 -34.8915915 8.36016058 -30.6796875 8.55859375 C-26.15492306 9.30392667 -22.12079118 11.03604846 -18 13 C-17.773125 12.113125 -17.54625 11.22625 -17.3125 10.3125 C-14.23155626 2.53678486 -8.19669716 -1.1542586 0 0 Z " fill="#EDE50E" transform="translate(259,188)"/>
<path d="M0 0 C0.66 0.33 1.32 0.66 2 1 C-5.26 8.26 -12.52 15.52 -20 23 C-20 18.85395211 -17.7700282 17.16591084 -15.0625 14.3125 C-14.56903076 13.78301758 -14.07556152 13.25353516 -13.56713867 12.70800781 C-9.29599405 8.1837634 -4.76570925 4.00084233 0 0 Z " fill="#91BEE4" transform="translate(57,36)"/>
</svg>
