<?xml version="1.0" encoding="UTF-8"?>
<svg version="1.1" xmlns="http://www.w3.org/2000/svg" width="512" height="512">
<path d="M0 0 C1.85796948 -0.00461485 3.71593529 -0.01097167 5.57389355 -0.01890898 C10.65442257 -0.03554515 15.7346495 -0.02738193 20.81517935 -0.0149641 C26.30402221 -0.00589252 31.79281408 -0.0198938 37.28164673 -0.03088379 C48.02439246 -0.04865107 58.76702627 -0.04483697 69.50977635 -0.03323323 C78.2422345 -0.02419215 86.97466132 -0.02297783 95.7071228 -0.02732849 C96.95094481 -0.02794142 98.19476681 -0.02855436 99.47628039 -0.02918586 C102.00324322 -0.03046479 104.53020603 -0.03176164 107.05716884 -0.03307623 C130.06619019 -0.04415192 153.07516202 -0.03267463 176.08417122 -0.01170584 C197.07185317 0.00727545 218.05943803 0.00557689 239.04711914 -0.0135498 C262.6474587 -0.0349858 286.24775694 -0.04337819 309.84810734 -0.03110075 C312.36566733 -0.02982658 314.88322734 -0.0285691 317.40078735 -0.02732849 C319.25871919 -0.02640284 319.25871919 -0.02640284 321.154185 -0.02545848 C329.87407403 -0.02200777 338.59392857 -0.02782795 347.31381226 -0.0372467 C357.9434197 -0.04847608 368.57290902 -0.04540679 379.20250297 -0.02412373 C384.62375243 -0.01362607 390.04480509 -0.00946972 395.46605301 -0.02272034 C400.43287476 -0.03467646 405.39931805 -0.02802853 410.36610568 -0.00681013 C412.15867701 -0.00235772 413.9512806 -0.00457958 415.74383104 -0.01431328 C429.16371376 -0.08157025 440.69958268 1.02141105 451.29223633 10.16418457 C460.46112217 19.66562067 462.85913728 29.00228931 462.82138062 41.75372314 C462.82591173 42.87900335 462.83044284 44.00428355 462.83511126 45.16366315 C462.84776121 48.93048038 462.84613447 52.69715314 462.84448242 56.46398926 C462.84938141 59.16635685 462.85721632 61.86871434 462.86483765 64.57107544 C462.88142639 71.14781855 462.88694624 77.72452581 462.8880624 84.3012881 C462.88901393 89.64952571 462.89312946 94.99775153 462.89946365 100.34598541 C462.91707063 115.52206991 462.92630343 130.69812616 462.92480271 145.87422094 C462.92468284 147.10056544 462.92468284 147.10056544 462.92456055 148.35168457 C462.92447879 149.17025032 462.92439702 149.98881607 462.92431279 150.83218685 C462.92350014 164.09367173 462.94263367 177.35504296 462.97083728 190.61649498 C462.9995937 204.24585736 463.01337604 217.87516437 463.01164973 231.50455785 C463.01098676 239.15134943 463.01643822 246.79802188 463.03800583 254.44478607 C463.05625403 260.95620163 463.06053527 267.46744406 463.04698698 273.97887418 C463.04047526 277.29786885 463.04246509 280.6162619 463.05769348 283.9352684 C463.07316664 287.54187697 463.06382274 291.147621 463.0484314 294.75421143 C463.05871852 295.79129706 463.06900565 296.8283827 463.07960451 297.89689517 C462.97972502 308.52817773 459.73316677 317.2051222 452.82348633 325.28137207 C441.57394638 336.31792589 428.28185496 336.9497544 413.46867371 336.89561462 C411.61329508 336.89978993 409.75791901 336.90526853 407.90254766 336.91193444 C402.81528991 336.92638204 397.72819427 336.9221464 392.64092767 336.91476762 C387.14999203 336.91003655 381.6590915 336.92254533 376.16816711 336.93278503 C365.4150035 336.94997991 354.6618983 336.95081155 343.90872451 336.94557213 C335.16761667 336.94153024 326.4265261 336.94297422 317.68541908 336.94832039 C315.81907637 336.94944302 315.81907637 336.94944302 313.91502977 336.95058833 C311.38734234 336.95211982 308.85965493 336.95365817 306.33196751 336.9552033 C289.36076872 336.96503188 272.38957618 336.96919606 255.41837597 336.96157742 C254.42329044 336.96113166 254.42329044 336.96113166 253.40810218 336.96067689 C248.02122993 336.95822806 242.63435776 336.95561642 237.2474856 336.95299276 C216.24015535 336.94289253 195.23290504 336.95124249 174.22558594 336.9744873 C150.61098894 337.00057496 126.9964281 337.01335418 103.38181382 337.00629956 C90.8831152 337.00280689 78.38448221 337.00504249 65.88579369 337.02255058 C55.24514003 337.03727113 44.60459824 337.03790991 33.96394678 337.02047967 C28.53663841 337.01196591 23.10952987 337.00982949 17.6822319 337.02513123 C12.70974587 337.0389769 7.73763088 337.03421645 2.76516632 337.01489199 C0.97048378 337.01113132 -0.82422847 337.01405587 -2.61888454 337.02450364 C-16.04644481 337.09708825 -27.58491842 336.00028772 -38.18432617 326.85168457 C-47.35321201 317.35024847 -49.75122712 308.01357983 -49.71347046 295.262146 C-49.71800157 294.13686579 -49.72253268 293.01158559 -49.7272011 291.85220599 C-49.73985106 288.08538876 -49.73822432 284.318716 -49.73657227 280.55187988 C-49.74147126 277.84951229 -49.74930616 275.1471548 -49.75692749 272.4447937 C-49.77351623 265.86805059 -49.77903608 259.29134333 -49.78015225 252.71458104 C-49.78110377 247.36634343 -49.7852193 242.01811761 -49.7915535 236.66988373 C-49.80916048 221.49379923 -49.81839327 206.31774299 -49.81689255 191.1416482 C-49.81681264 190.3240852 -49.81673272 189.50652221 -49.81665039 188.66418457 C-49.81656863 187.84561882 -49.81648687 187.02705307 -49.81640263 186.18368229 C-49.81558999 172.92219741 -49.83472352 159.66082618 -49.86292712 146.39937416 C-49.89168354 132.77001178 -49.90546589 119.14070477 -49.90373957 105.51131129 C-49.9030766 97.86451971 -49.90852806 90.21784726 -49.93009567 82.57108307 C-49.94834388 76.05966751 -49.95262511 69.54842508 -49.93907683 63.03699496 C-49.93256511 59.71800029 -49.93455494 56.39960724 -49.94978333 53.08060074 C-49.96525648 49.47399217 -49.95591258 45.86824814 -49.94052124 42.26165771 C-49.95080837 41.22457208 -49.96109549 40.18748644 -49.97169435 39.11897397 C-49.85910977 27.13534705 -45.6650377 18.11682264 -37.44604492 9.50793457 C-27.26216363 -0.31481618 -13.19353167 -0.07164203 0 0 Z " fill="#73AF00" transform="translate(49.446044921875,87.4920654296875)"/>
<path d="M0 0 C2.79467773 1.24658203 2.79467773 1.24658203 5.68359375 3.0078125 C6.76415039 3.65766113 7.84470703 4.30750977 8.95800781 4.97705078 C10.1180055 5.69276333 11.27783201 6.40875338 12.4375 7.125 C13.64740399 7.85907834 14.85802656 8.5919735 16.06933594 9.32373047 C19.14122274 11.18341205 22.20377399 13.05789367 25.26409912 14.93652344 C27.86440097 16.52956375 30.47321816 18.10844738 33.08203125 19.6875 C37.79148961 22.5410597 42.4919756 25.40899624 47.18945312 28.28222656 C51.95539564 31.19511499 56.72807313 34.09692969 61.5 37 C63.41669809 38.16661505 65.33336477 39.33328168 67.25 40.5 C68.19875 41.0775 69.1475 41.655 70.125 42.25 C96 58 121.875 73.75 147.75 89.5 C148.70028076 90.0782251 149.65056152 90.6564502 150.62963867 91.25219727 C152.53158655 92.41031965 154.43280092 93.56964758 156.33325195 94.73022461 C161.34453097 97.78829705 166.36969719 100.81973276 171.41796875 103.81640625 C172.46726562 104.44353516 173.5165625 105.07066406 174.59765625 105.71679688 C176.60735493 106.9172806 178.62147344 108.11040638 180.640625 109.29492188 C189.23909013 114.45033162 189.23909013 114.45033162 192 119 C192.62693602 122.7616161 192.46282804 124.33022651 190.28442383 127.48266602 C187.96570252 130.0377943 185.91799335 131.54630599 182.94921875 133.27734375 C181.9526123 133.86588135 180.95600586 134.45441895 179.92919922 135.06079102 C178.85943848 135.68010498 177.78967773 136.29941895 176.6875 136.9375 C174.98973718 137.93770855 173.29198471 138.93793564 171.59509277 139.93962097 C170.43606362 140.62314549 169.27630744 141.30543864 168.11584473 141.98652649 C162.49780613 145.28388436 156.93284262 148.66499721 151.375 152.0625 C149.47662251 153.22015049 147.57818497 154.37770253 145.6796875 155.53515625 C144.74350586 156.10637207 143.80732422 156.67758789 142.84277344 157.26611328 C138.06394577 160.18085341 133.28179674 163.09013437 128.5 166 C126.58331762 167.16664085 124.66665095 168.33330751 122.75 169.5 C103.58333333 181.16666667 84.41666667 192.83333333 65.25 204.5 C64.30141113 205.07741943 63.35282227 205.65483887 62.37548828 206.24975586 C60.45725686 207.41733958 58.5389625 208.58481992 56.62060547 209.75219727 C50.90236837 213.23212527 45.18649633 216.7158942 39.47241211 220.20263672 C36.63380329 221.93213636 33.79169236 223.65576757 30.94921875 225.37890625 C27.26552271 227.61364469 23.59485574 229.86765268 19.93572998 232.14241028 C18.22155288 233.20583496 16.50383033 234.26326013 14.78466797 235.31860352 C12.5988492 236.66150297 10.41915885 238.01444344 8.24658203 239.37866211 C7.2564209 239.98331299 6.26625977 240.58796387 5.24609375 241.2109375 C4.37654053 241.75024902 3.5069873 242.28956055 2.61108398 242.84521484 C-0.50435178 244.223056 -2.62447306 244.32728927 -6 244 C-8.63378063 242.7228371 -10.97571817 241.42490148 -13.4375 239.875 C-14.16630371 239.43124023 -14.89510742 238.98748047 -15.64599609 238.53027344 C-17.24741513 237.55346458 -18.84524803 236.57075854 -20.43994141 235.58300781 C-23.09045516 233.94406721 -25.75242206 232.32530266 -28.41796875 230.7109375 C-33.29443737 227.75578317 -38.16247243 224.78705539 -43.02832031 221.81445312 C-47.84900566 218.87103105 -52.67470088 215.93584997 -57.5 213 C-59.41669182 211.83337466 -61.33335846 210.66670795 -63.25 209.5 C-64.19875 208.9225 -65.1475 208.345 -66.125 207.75 C-92 192 -117.875 176.25 -143.75 160.5 C-144.6997168 159.92193604 -145.64943359 159.34387207 -146.62792969 158.74829102 C-148.53491883 157.58746568 -150.4418206 156.4264968 -152.34863281 155.26538086 C-157.28764041 152.25812845 -162.22837167 149.25376345 -167.171875 146.25390625 C-168.69844727 145.32674805 -168.69844727 145.32674805 -170.25585938 144.38085938 C-172.17846427 143.21325001 -174.10159639 142.0465081 -176.02539062 140.88085938 C-178.68896505 139.26250963 -181.34507723 137.63249712 -184 136 C-184.99322266 135.39784668 -185.98644531 134.79569336 -187.00976562 134.17529297 C-187.99138672 133.56959473 -188.97300781 132.96389648 -189.984375 132.33984375 C-190.87350586 131.79577881 -191.76263672 131.25171387 -192.67871094 130.69116211 C-195.03885436 128.97169287 -196.47602977 127.47936347 -198 125 C-198.51867654 121.51745749 -198.43108545 119.71009354 -196.59375 116.68359375 C-192.91355702 112.8759242 -188.64979712 110.59127347 -184.0625 108 C-182.05488378 106.84045413 -180.04839867 105.67894798 -178.04296875 104.515625 C-177.0276709 103.92845703 -176.01237305 103.34128906 -174.96630859 102.73632812 C-170.55290357 100.1529424 -166.21183549 97.45935728 -161.875 94.75 C-153.76135238 89.69650639 -145.61132504 84.70541475 -137.4375 79.75 C-136.8481366 79.39264771 -136.25877319 79.03529541 -135.65155029 78.66711426 C-132.63895869 76.84068642 -129.62597112 75.0149131 -126.61279297 73.18945312 C-121.32011727 69.98259168 -116.03094992 66.76995285 -110.74157715 63.55764771 C-107.83436291 61.79211669 -104.92694484 60.02692145 -102.01953125 58.26171875 C-101.15477676 57.73668007 -101.15477676 57.73668007 -100.27255249 57.20103455 C-96.72244275 55.04561298 -93.17215702 52.89048158 -89.62174988 50.73554993 C-71.39619282 39.67347549 -53.17939647 28.59710118 -34.97558594 17.49926758 C-33.01771775 16.30716553 -31.05876146 15.11684839 -29.09863281 13.9284668 C-24.85675343 11.35661577 -20.62532964 8.77403234 -16.43359375 6.12109375 C-15.74974609 5.69417236 -15.06589844 5.26725098 -14.36132812 4.82739258 C-13.13051864 4.05813665 -11.90585097 3.27890836 -10.68945312 2.48706055 C-6.90558066 0.14253238 -4.40611709 -0.39029494 0 0 Z " fill="#FEE059" transform="translate(259,134)"/>
<path d="M0 0 C50.64352465 -1.27318859 95.70556642 10.0792171 135 43 C132.25667803 53.4246235 125.39885268 61.46504802 118 69 C117.31164062 69.71285156 116.62328125 70.42570312 115.9140625 71.16015625 C100.82360609 85.71767832 81.62026731 88.59859294 61.52734375 88.33984375 C44.32272286 87.74692031 29.96018511 78.91971071 18 67 C17.28972656 66.31292969 16.57945312 65.62585938 15.84765625 64.91796875 C2.86888946 51.49079927 -1.18762479 34.37975133 -1.125 16.3125 C-1.12886719 15.18521484 -1.13273438 14.05792969 -1.13671875 12.89648438 C-1.13542969 11.81302734 -1.13414062 10.72957031 -1.1328125 9.61328125 C-1.13168457 8.63141846 -1.13055664 7.64955566 -1.12939453 6.63793945 C-1.01311399 4.26735217 -0.67563985 2.26611081 0 0 Z " fill="#42489B" transform="translate(187,238)"/>
<path d="M0 0 C1.08539063 -0.00773438 2.17078125 -0.01546875 3.2890625 -0.0234375 C21.78413256 0.02123658 38.52894216 6.9584604 51.8125 19.875 C62.05516417 30.27479037 71.82453216 45.71923967 71.72265625 60.796875 C71.71943359 61.64121094 71.71621094 62.48554688 71.71289062 63.35546875 C71.70451172 64.22816406 71.69613281 65.10085937 71.6875 66 C71.68298828 66.88816406 71.67847656 67.77632813 71.67382812 68.69140625 C71.662074 70.87767329 71.64564249 73.06380179 71.625 75.25 C68.86036151 73.93193909 66.36826288 72.46485376 63.859375 70.7109375 C49.50660945 60.81770636 34.93335427 53.3581911 18.625 47.25 C17.81724121 46.93627441 17.00948242 46.62254883 16.17724609 46.29931641 C9.18683632 43.64778167 2.16516575 41.76054502 -5.125 40.125 C-6.27677734 39.86565674 -7.42855469 39.60631348 -8.61523438 39.33911133 C-25.55462468 35.59749332 -42.05506026 34.73411603 -59.375 34.25 C-49.42769538 18.66180649 -36.92298268 8.51378526 -19.375 2.25 C-17.84746094 1.69505859 -17.84746094 1.69505859 -16.2890625 1.12890625 C-10.9751998 -0.33836519 -5.46763674 -0.03868611 0 0 Z " fill="#42489B" transform="translate(254.375,185.75)"/>
<path d="M0 0 C2.21704102 -0.40405273 2.21704102 -0.40405273 5.00390625 -0.43359375 C6.04224609 -0.44495361 7.08058594 -0.45631348 8.15039062 -0.46801758 C9.27638672 -0.45794678 10.40238281 -0.44787598 11.5625 -0.4375 C12.72330078 -0.43065186 13.88410156 -0.42380371 15.08007812 -0.41674805 C33.48811471 -0.08447751 51.50613581 3.35804772 69 9 C69.80775879 9.25652344 70.61551758 9.51304687 71.44775391 9.77734375 C83.1823457 13.5482908 94.18635354 18.08722266 105 24 C106.06734375 24.57621094 107.1346875 25.15242188 108.234375 25.74609375 C116.24989855 30.24184725 124.47139101 35.47139101 131 42 C131.60707295 48.92063164 130.10036834 54.79926333 127 61 C124.04429311 59.66412374 121.96105338 58.1731348 119.625 55.9375 C85.2327596 25.29598452 37.10696815 18.77576146 -7 18 C-6.32321559 14.43095862 -5.42844071 11.24603859 -4.0625 7.875 C-3.72347656 7.02679688 -3.38445312 6.17859375 -3.03515625 5.3046875 C-2 3 -2 3 0 0 Z " fill="#F1F1F2" transform="translate(195,220)"/>
<path d="M0 0 C0.99 0.33 1.98 0.66 3 1 C3 2.65 3 4.3 3 6 C5.31 6 7.62 6 10 6 C9 9 9 9 7 10 C7 12.31 7 14.62 7 17 C5.948125 16.62875 4.89625 16.2575 3.8125 15.875 C-0.18632214 14.95723754 -1.49128216 15.08615391 -5 17 C-4.9071875 15.329375 -4.9071875 15.329375 -4.8125 13.625 C-4.874375 12.42875 -4.93625 11.2325 -5 10 C-5.99 9.34 -6.98 8.68 -8 8 C-8 7.34 -8 6.68 -8 6 C-5.69 6 -3.38 6 -1 6 C-0.67 4.02 -0.34 2.04 0 0 Z " fill="#EAEBEF" transform="translate(257,280)"/>
<path d="M0 0 C0.66 0.33 1.32 0.66 2 1 C2 1.66 2 2.32 2 3 C2.99 3.33 3.98 3.66 5 4 C4.67 5.65 4.34 7.3 4 9 C1.125 8.8125 1.125 8.8125 -2 8 C-3.375 5.4375 -3.375 5.4375 -4 3 C-3.01 2.67 -2.02 2.34 -1 2 C-0.67 1.34 -0.34 0.68 0 0 Z " fill="#E5E6ED" transform="translate(216,281)"/>
<path d="M0 0 C0.33 0.66 0.66 1.32 1 2 C1.99 2 2.98 2 4 2 C3.67 3.65 3.34 5.3 3 7 C1.35 7 -0.3 7 -2 7 C-2.66 5.35 -3.32 3.7 -4 2 C-2.68 1.34 -1.36 0.68 0 0 Z " fill="#D4D5E4" transform="translate(241,294)"/>
<path d="M0 0 C2.475 0.99 2.475 0.99 5 2 C4.34 3.65 3.68 5.3 3 7 C1.35 7 -0.3 7 -2 7 C-2.33 5.35 -2.66 3.7 -3 2 C-2.01 2 -1.02 2 0 2 C0 1.34 0 0.68 0 0 Z " fill="#D7D8E6" transform="translate(281,295)"/>
<path d="M0 0 C0.33 0.66 0.66 1.32 1 2 C1.99 2 2.98 2 4 2 C3.67 3.65 3.34 5.3 3 7 C1.35 7 -0.3 7 -2 7 C-2.33 5.35 -2.66 3.7 -3 2 C-2.01 2 -1.02 2 0 2 C0 1.34 0 0.68 0 0 Z " fill="#D5D6E5" transform="translate(301,281)"/>
<path d="M0 0 C0.33 0.66 0.66 1.32 1 2 C1.99 2 2.98 2 4 2 C3.67 3.65 3.34 5.3 3 7 C1.35 7 -0.3 7 -2 7 C-2.33 5.35 -2.66 3.7 -3 2 C-2.01 2 -1.02 2 0 2 C0 1.34 0 0.68 0 0 Z " fill="#DADBE7" transform="translate(283,224)"/>
<path d="M0 0 C1.32 1.32 2.64 2.64 4 4 C3.34 5.32 2.68 6.64 2 8 C0.68 8 -0.64 8 -2 8 C-2.33 6.35 -2.66 4.7 -3 3 C-2.01 3 -1.02 3 0 3 C0 2.01 0 1.02 0 0 Z " fill="#DBDCE8" transform="translate(248,269)"/>
<path d="M0 0 C2.475 0.99 2.475 0.99 5 2 C4.3125 3.9375 4.3125 3.9375 3 6 C0.375 6.75 0.375 6.75 -2 7 C-2.33 5.35 -2.66 3.7 -3 2 C-2.01 2 -1.02 2 0 2 C0 1.34 0 0.68 0 0 Z " fill="#DADBE7" transform="translate(203,267)"/>
<path d="M0 0 C0.99 0.66 1.98 1.32 3 2 C2.67 3.32 2.34 4.64 2 6 C1.01 5.67 0.02 5.34 -1 5 C-1.33 4.01 -1.66 3.02 -2 2 C-1.34 2 -0.68 2 0 2 C0 1.34 0 0.68 0 0 Z " fill="#DBDBE8" transform="translate(220,265)"/>
<path d="M0 0 C0.99 0.66 1.98 1.32 3 2 C2.67 3.32 2.34 4.64 2 6 C1.01 5.67 0.02 5.34 -1 5 C-1.33 4.01 -1.66 3.02 -2 2 C-1.34 2 -0.68 2 0 2 C0 1.34 0 0.68 0 0 Z " fill="#D8D9E6" transform="translate(206,253)"/>
</svg>
