<?xml version="1.0" encoding="UTF-8"?>
<svg version="1.1" xmlns="http://www.w3.org/2000/svg" width="512" height="512">
<path d="M0 0 C0.70710456 -0.00235223 1.41420912 -0.00470446 2.14274108 -0.00712797 C4.53014428 -0.01382511 6.91749313 -0.01335953 9.30490494 -0.01294994 C11.02667265 -0.01624812 12.7484396 -0.01997359 14.47020555 -0.02409142 C19.21577222 -0.03412471 23.96132625 -0.03783034 28.70690203 -0.04048073 C33.81951086 -0.04437981 38.93210964 -0.05395836 44.04471207 -0.0626936 C56.39806813 -0.08246842 68.75142502 -0.09252514 81.10479295 -0.10142139 C86.91869242 -0.1058023 92.73259097 -0.11116958 98.54648972 -0.11641026 C117.86677613 -0.13342294 137.18706198 -0.14791815 156.50735474 -0.155159 C161.52257411 -0.15706896 166.53779349 -0.15898929 171.55301285 -0.16094494 C172.79955714 -0.16142868 174.04610144 -0.16191242 175.33041981 -0.16241082 C195.53342362 -0.17071498 215.7363683 -0.19605824 235.93934628 -0.22852562 C256.66955374 -0.2615694 277.39973112 -0.2796053 298.12996507 -0.28280324 C309.77402681 -0.28497073 321.4180023 -0.29375448 333.06203842 -0.31926441 C342.97650484 -0.34093472 352.89086405 -0.3490399 362.80535147 -0.33929763 C367.86543914 -0.33474239 372.92530546 -0.33671017 377.98536301 -0.35605907 C382.61672812 -0.37361609 387.24770917 -0.37275393 391.87907794 -0.35716178 C393.55541861 -0.35477434 395.23178535 -0.35916784 396.90808603 -0.37099043 C399.18630261 -0.38606424 401.46315034 -0.37646971 403.74133301 -0.36076355 C405.63958379 -0.36222876 405.63958379 -0.36222876 407.57618308 -0.36372358 C413.26655174 0.43530526 416.95717716 2.62934584 420.52810287 7.24136829 C422.80258812 11.82000005 422.67755844 16.39945452 422.63028336 21.41986561 C422.6396433 22.95276076 422.6396433 22.95276076 422.64919233 24.5166235 C422.66511997 27.93366303 422.65251845 31.34998902 422.63992691 34.76703358 C422.6453481 37.21973556 422.65247074 39.67243428 422.66116714 42.12512684 C422.67751038 48.09101089 422.67512218 54.05661594 422.66351658 60.02248907 C422.65447395 64.87210745 422.65326183 69.72166944 422.65761185 74.57129383 C422.65822478 75.26216465 422.65883771 75.95303547 422.65946922 76.66484177 C422.66074815 78.06844093 422.662045 79.47204007 422.66335958 80.8756392 C422.67475903 94.02958837 422.66166169 107.18342594 422.64015812 120.33735681 C422.62228768 131.61800806 422.62539196 142.89849466 422.64383316 154.17914295 C422.66525114 167.28680792 422.67366046 180.39437514 422.66138411 193.50205517 C422.66010994 194.90041954 422.65885246 196.29878392 422.65761185 197.69714832 C422.65668619 198.72911483 422.65668619 198.72911483 422.65574184 199.78192914 C422.65229171 204.62433894 422.65810999 209.46668662 422.66753006 214.3090868 C422.67993597 220.82953658 422.67107226 227.34972374 422.64795303 233.8701601 C422.64266309 236.26348065 422.64418454 238.65682737 422.65300369 241.05013752 C422.6639309 244.31663746 422.6502284 247.58214018 422.63028336 250.84857655 C422.64366769 252.26993506 422.64366769 252.26993506 422.65732241 253.7200079 C422.58641014 259.70564123 421.82888182 263.34705523 418.12234879 268.13422108 C413.12268973 271.52413046 409.90826886 272.6344213 403.75250626 272.63758564 C402.68492635 272.64630628 402.68492635 272.64630628 401.59577918 272.6552031 C399.21642956 272.66977417 396.83811626 272.65593227 394.45877457 272.64215565 C392.73355012 272.64676572 391.0083296 272.65311936 389.28311729 272.66106462 C384.54648218 272.67776641 379.81016934 272.66950769 375.07353306 272.65711975 C369.96370444 272.64807509 364.8539315 272.6620361 359.74411392 272.67303944 C349.73562549 272.69083545 339.72725698 272.68697983 329.71876383 272.67538887 C321.58539883 272.6663591 313.45206746 272.66512858 305.31869888 272.66948414 C304.16156737 272.67009707 303.00443587 272.67071 301.81223977 272.67134151 C299.46162461 272.6726204 297.11100947 272.67391725 294.76039433 272.67523187 C272.71336192 272.68664085 250.66639602 272.67351897 228.61937451 272.65203041 C209.69780659 272.63415916 190.77633682 272.63726317 171.85477066 272.65570545 C149.88718105 272.67710654 127.91964974 272.68554218 105.95205116 272.6732564 C103.61003368 272.67198219 101.26801619 272.6707247 98.92599869 272.66948414 C97.1974764 272.66855849 97.1974764 272.66855849 95.43403447 272.66761413 C87.30947479 272.66415895 79.18495206 272.66999321 71.0603981 272.67940235 C61.16064936 272.69061523 51.2610275 272.68759719 41.36129332 272.66627938 C36.30929168 272.65575945 31.25750167 272.65166326 26.20550156 272.66487598 C21.58167618 272.67678609 16.95825882 272.6702601 12.33447051 272.64896578 C10.66094992 272.64449386 8.98739493 272.6467792 7.31389642 272.65646893 C5.03950427 272.66862873 2.7665105 272.65616367 0.49219131 272.63758564 C-1.40280704 272.63661153 -1.40280704 272.63661153 -3.33608818 272.63561773 C-9.02196131 271.83064045 -12.71470964 269.6362161 -16.2834053 265.02707386 C-18.55789055 260.44844211 -18.43286087 255.86898763 -18.38558578 250.84857655 C-18.39182575 249.82664644 -18.39806571 248.80471634 -18.40449476 247.75181866 C-18.4204224 244.33477913 -18.40782088 240.91845314 -18.39522934 237.50140858 C-18.40065053 235.0487066 -18.40777317 232.59600787 -18.41646957 230.14331532 C-18.43281281 224.17743126 -18.43042461 218.21182621 -18.41881901 212.24595308 C-18.40977638 207.3963347 -18.40856426 202.54677272 -18.41291428 197.69714832 C-18.41352721 197.0062775 -18.41414014 196.31540668 -18.41477165 195.60360038 C-18.41605058 194.20000122 -18.41734743 192.79640208 -18.41866201 191.39280295 C-18.43006146 178.23885378 -18.41696412 165.08501621 -18.39546055 151.93108535 C-18.3775901 140.65043409 -18.38069439 129.36994749 -18.39913559 118.0892992 C-18.42055357 104.98163423 -18.42896288 91.87406701 -18.41668653 78.76638699 C-18.41541237 77.36802262 -18.41415489 75.96965823 -18.41291428 74.57129383 C-18.41229717 73.88331616 -18.41168007 73.19533849 -18.41104427 72.48651302 C-18.40759414 67.64410321 -18.41341242 62.80175554 -18.42283249 57.95935535 C-18.4352384 51.43890557 -18.42637469 44.91871842 -18.40325546 38.39828205 C-18.39796552 36.0049615 -18.39948697 33.61161478 -18.40830612 31.21830463 C-18.41923333 27.95180469 -18.40553083 24.68630198 -18.38558578 21.41986561 C-18.39450867 20.47229326 -18.40343156 19.52472092 -18.41262484 18.54843426 C-18.34167579 12.55969644 -17.3460343 9.05331668 -13.87765121 4.13422108 C-9.53956455 0.19050592 -5.71394297 0.00807984 0 0 Z " fill="#E8E8E8" transform="translate(53.87765121459961,119.86577892303467)"/>
<path d="M0 0 C0 89.76 0 179.52 0 272 C-92 272 -92 272 -99 268 C-103.35125792 262.38014093 -103.57339654 257.66613636 -103.50793457 250.71435547 C-103.51417453 249.69242537 -103.5204145 248.67049526 -103.52684355 247.61759758 C-103.54277118 244.20055805 -103.53016966 240.78423206 -103.51757812 237.3671875 C-103.52299931 234.91448552 -103.53012195 232.46178679 -103.53881836 230.00909424 C-103.5551616 224.04321018 -103.5527734 218.07760513 -103.5411678 212.11173201 C-103.53212517 207.26211363 -103.53091305 202.41255164 -103.53526306 197.56292725 C-103.53587599 196.87205643 -103.53648893 196.18118561 -103.53712043 195.46937931 C-103.53839936 194.06578015 -103.53969622 192.662181 -103.5410108 191.25858188 C-103.55241025 178.10463271 -103.5393129 164.95079514 -103.51780933 151.79686427 C-103.49993889 140.51621301 -103.50304318 129.23572641 -103.52148438 117.95507812 C-103.54290236 104.84741315 -103.55131167 91.73984594 -103.53903532 78.63216591 C-103.53776116 77.23380154 -103.53650367 75.83543715 -103.53526306 74.43707275 C-103.53464596 73.74909509 -103.53402886 73.06111742 -103.53339306 72.35229194 C-103.52994293 67.50988213 -103.5357612 62.66753446 -103.54518127 57.82513428 C-103.55758718 51.3046845 -103.54872348 44.78449734 -103.52560425 38.26406097 C-103.52031431 35.87074042 -103.52183575 33.47739371 -103.53065491 31.08408356 C-103.54158211 27.81758362 -103.52787961 24.5520809 -103.50793457 21.28564453 C-103.51685746 20.33807219 -103.52578034 19.39049984 -103.53497362 18.41421318 C-103.46402458 12.42547537 -102.46838308 8.91909561 -99 4 C-74.56205466 -18.21631395 -33.02692504 0 0 0 Z " fill="#D64343" transform="translate(139,120)"/>
<path d="M0 0 C92 0 92 0 99 4 C103.35125792 9.61985907 103.57339654 14.33386364 103.50793457 21.28564453 C103.51417453 22.30757463 103.5204145 23.32950474 103.52684355 24.38240242 C103.54277118 27.79944195 103.53016966 31.21576794 103.51757812 34.6328125 C103.52299931 37.08551448 103.53012195 39.53821321 103.53881836 41.99090576 C103.5551616 47.95678982 103.5527734 53.92239487 103.5411678 59.88826799 C103.53212517 64.73788637 103.53091305 69.58744836 103.53526306 74.43707275 C103.53587599 75.12794357 103.53648893 75.81881439 103.53712043 76.53062069 C103.53839936 77.93421985 103.53969622 79.337819 103.5410108 80.74141812 C103.55241025 93.89536729 103.5393129 107.04920486 103.51780933 120.20313573 C103.49993889 131.48378699 103.50304318 142.76427359 103.52148438 154.04492188 C103.54290236 167.15258685 103.55131167 180.26015406 103.53903532 193.36783409 C103.53776116 194.76619846 103.53650367 196.16456285 103.53526306 197.56292725 C103.53464596 198.25090491 103.53402886 198.93888258 103.53339306 199.64770806 C103.52994293 204.49011787 103.5357612 209.33246554 103.54518127 214.17486572 C103.55758718 220.6953155 103.54872348 227.21550266 103.52560425 233.73593903 C103.52031431 236.12925958 103.52183575 238.52260629 103.53065491 240.91591644 C103.54158211 244.18241638 103.52787961 247.4479191 103.50793457 250.71435547 C103.51685746 251.66192781 103.52578034 252.60950016 103.53497362 253.58578682 C103.46406135 259.57142015 102.70653304 263.21283415 99 268 C70.32459883 284.38594353 33.02692504 272 0 272 C0 182.24 0 92.48 0 0 Z " fill="#D64343" transform="translate(373,120)"/>
<path d="M0 0 C3.9796653 1.30800188 5.52926182 3.91789251 7.8046875 7.20727539 C11.65135449 13.11135112 11.65135449 13.11135112 17.33203125 16.8046875 C19.77356334 16.53193977 21.71138353 15.89405051 24 15 C25.97630819 14.4684231 27.95559046 13.9477966 29.9375 13.4375 C30.85402344 13.16808594 31.77054687 12.89867187 32.71484375 12.62109375 C35 12 35 12 37 12 C36.45375143 17.60061747 35.6945903 23.14673283 34.80859375 28.703125 C34.69859039 29.39329712 34.58858704 30.08346924 34.47525024 30.79455566 C34.01364327 33.67863732 33.54909466 36.56222814 33.08129883 39.4453125 C32.73703031 41.57239162 32.39753994 43.70019226 32.05859375 45.828125 C31.85548584 47.0852832 31.65237793 48.34244141 31.44311523 49.63769531 C31.06789875 52.48479255 30.90764788 55.13606186 31 58 C32.051875 57.02160156 32.051875 57.02160156 33.125 56.0234375 C38.53908515 51.0360058 43.97399202 46.24755863 50 42 C50.66969591 44.4575448 51.3358768 46.91594924 52 49.375 C52.19078125 50.07367188 52.3815625 50.77234375 52.578125 51.4921875 C54 56.7734375 54 56.7734375 54 59 C55.24136719 58.75443359 55.24136719 58.75443359 56.5078125 58.50390625 C60.32194189 57.9535453 64.03353501 57.88910945 67.875 57.9375 C68.56335938 57.94201172 69.25171875 57.94652344 69.9609375 57.95117188 C71.64066335 57.96283664 73.32034375 57.98076729 75 58 C73.26221806 63.56880122 71.25577199 68.87257409 68.76953125 74.15234375 C67.87184107 75.97412781 67.87184107 75.97412781 68 78 C70.78763685 80.1314561 73.68622421 82.0632954 76.59375 84.02734375 C77.3878125 84.67832031 78.181875 85.32929688 79 86 C79 86.99 79 87.98 79 89 C78.32122803 89.35191406 77.64245605 89.70382812 76.94311523 90.06640625 C73.7741148 91.71004862 70.60574858 93.35490884 67.4375 95 C66.30046631 95.58998779 65.16343262 96.17997559 63.99194336 96.7878418 C56.48654399 100.68847445 49.01908094 104.64909329 41.59765625 108.70703125 C39 110 39 110 37 110 C37.18175781 111.09465576 37.36351562 112.18931152 37.55078125 113.31713867 C38.22571944 117.38858109 38.89538258 121.46087665 39.56347656 125.53344727 C39.85305872 127.2941003 40.14406028 129.0545205 40.43652344 130.81469727 C40.85727648 133.34851791 41.27287473 135.88313909 41.6875 138.41796875 C41.81874268 139.20149216 41.94998535 139.98501556 42.08520508 140.7922821 C42.69835392 144.57143898 43.16060604 148.155493 43 152 C34.66098812 148.04721686 26.78420009 143.42499777 18.875 138.6875 C14.62625 136.150625 10.3775 133.61375 6 131 C6 143.54 6 156.08 6 169 C2.7 169 -0.6 169 -4 169 C-4 156.46 -4 143.92 -4 131 C-13.1853053 136.41164947 -13.1853053 136.41164947 -22.3671875 141.82910156 C-28.48137224 145.42846042 -34.58458793 148.95595243 -41 152 C-40.35890737 142.84587846 -38.93873937 133.85441142 -37.4375 124.8125 C-37.20081614 123.36919892 -36.96448564 121.92583984 -36.72851562 120.48242188 C-36.15640731 116.98760466 -35.57955112 113.49359164 -35 110 C-35.86334961 109.7328418 -36.72669922 109.46568359 -37.61621094 109.19042969 C-40.97371518 108.0092471 -43.98366835 106.59199301 -47.140625 104.953125 C-48.29433594 104.355 -49.44804687 103.756875 -50.63671875 103.140625 C-51.23145996 102.82931641 -51.82620117 102.51800781 -52.43896484 102.19726562 C-54.22854423 101.26122249 -56.02211659 100.3332257 -57.81640625 99.40625 C-64.69097248 95.82749917 -71.41441008 92.08721713 -78 88 C-74.29909479 84.0747975 -70.45040344 81.05419844 -66 78 C-67.73778194 72.43119878 -69.74422801 67.12742591 -72.23046875 61.84765625 C-73 60 -73 60 -73 58 C-66.07 58.33 -59.14 58.66 -52 59 C-51.09421051 54.15513923 -51.09421051 54.15513923 -50.20556641 49.30712891 C-49.22222222 44.22222222 -49.22222222 44.22222222 -47 42 C-45.80503906 43.10408203 -45.80503906 43.10408203 -44.5859375 44.23046875 C-43.5156933 45.21621999 -42.44537693 46.20189288 -41.375 47.1875 C-40.85292969 47.67025391 -40.33085937 48.15300781 -39.79296875 48.65039062 C-36.28138707 51.88017871 -32.68700349 54.97178542 -29 58 C-29.65192152 48.74692031 -31.07904254 39.64643919 -32.5625 30.5 C-32.91409294 28.32248539 -33.26458003 26.14481306 -33.61228943 23.9666748 C-33.92453558 22.01186828 -34.24060133 20.05767299 -34.55688477 18.10351562 C-35 15 -35 15 -35 12 C-30.07380446 12.6657021 -25.43732558 13.96964391 -20.68359375 15.37890625 C-17.85236615 16.03416853 -15.87606385 16.48700123 -13 16 C-10.56195966 13.76704667 -10.56195966 13.76704667 -8.4375 10.8125 C-7.69371094 9.84957031 -6.94992188 8.88664063 -6.18359375 7.89453125 C-5.46300781 6.93933594 -4.74242187 5.98414063 -4 5 C-2.67139659 3.32956038 -1.33962147 1.66161665 0 0 Z " fill="#D64444" transform="translate(255,172)"/>
</svg>
