<?xml version="1.0" encoding="UTF-8"?>
<svg version="1.1" xmlns="http://www.w3.org/2000/svg" width="512" height="512">
<path d="M0 0 C2.61528918 -0.00542995 5.23057531 -0.01255748 7.84585571 -0.02124023 C14.17330467 -0.03890048 20.50056239 -0.03524186 26.82801843 -0.02358967 C31.97670051 -0.01450588 37.12532951 -0.01335255 42.27401733 -0.01768494 C43.01060253 -0.01829787 43.74718772 -0.0189108 44.50609368 -0.01954231 C46.00308618 -0.02082138 47.50007867 -0.02211824 48.99707115 -0.02343267 C62.98974297 -0.03480185 76.98230948 -0.02178256 90.97496402 -0.00023121 C102.94592713 0.01763645 114.916735 0.01453131 126.88769531 -0.00390625 C140.83493631 -0.02537802 154.78208533 -0.03370356 168.72934055 -0.0214572 C170.22040874 -0.02018318 171.71147695 -0.01892569 173.20254517 -0.01768494 C173.93591982 -0.01706783 174.66929448 -0.01645073 175.4248926 -0.01581493 C180.55927526 -0.01238088 185.6935989 -0.01814806 190.82797241 -0.02760315 C197.75570671 -0.04008201 204.68314533 -0.03102616 211.61085129 -0.00802612 C214.14188531 -0.0027711 216.67294414 -0.00419724 219.20396805 -0.01307678 C250.32866074 -0.11214088 275.17482908 7.23893812 297.73828125 29.51757812 C315.92392134 47.67170064 324.21281636 71.8841184 324.28039551 97.13613892 C324.27262278 98.9364642 324.26443039 100.73678771 324.25585938 102.53710938 C324.26129473 104.48245768 324.26842523 106.42780187 324.27709961 108.37313843 C324.29516795 113.6046161 324.28833431 118.83577444 324.27558327 124.06725693 C324.26536932 129.57389865 324.27487203 135.08051526 324.28112793 140.5871582 C324.2883801 149.82996467 324.27888073 159.07264277 324.25976562 168.31542969 C324.23800167 178.96113658 324.24505476 189.60653689 324.26707125 200.25223637 C324.28529482 209.43581016 324.28774971 218.61929232 324.27731657 227.80287838 C324.27111973 233.26883395 324.27014001 238.73464601 324.28346252 244.20059204 C324.29512227 249.34235419 324.28681275 254.48372581 324.2638855 259.62544632 C324.25865198 261.4985553 324.26001868 263.37169787 324.26893616 265.24479294 C324.38986015 293.2533102 315.64208826 317.31421549 295.73828125 337.51757812 C275.51007507 357.77961074 250.66987948 365.00429021 222.80435181 365.05969238 C220.36175405 365.05191805 217.9191576 365.04372556 215.4765625 365.03515625 C212.86127332 365.0405862 210.24598719 365.04771373 207.63070679 365.05639648 C201.30325783 365.07405673 194.97600011 365.07039811 188.64854407 365.05874592 C183.49986199 365.04966213 178.35123299 365.0485088 173.20254517 365.05284119 C172.09766737 365.05376058 172.09766737 365.05376058 170.97046882 365.05469856 C169.47347632 365.05597763 167.97648383 365.05727449 166.47949135 365.05858892 C152.48681953 365.0699581 138.49425302 365.05693881 124.50159848 365.03538746 C112.53063537 365.0175198 100.5598275 365.02062494 88.58886719 365.0390625 C74.64162619 365.06053427 60.69447717 365.06885981 46.74722195 365.05661345 C45.25615376 365.05533943 43.76508555 365.05408194 42.27401733 365.05284119 C41.54064268 365.05222408 40.80726802 365.05160698 40.0516699 365.05097118 C34.91728724 365.04753713 29.7829636 365.05330431 24.64859009 365.0627594 C17.72085579 365.07523826 10.79341717 365.06618241 3.86571121 365.04318237 C1.33467719 365.03792735 -1.19638164 365.03935349 -3.72740555 365.04823303 C-34.07116078 365.14481155 -59.07072561 358.379545 -81.26171875 336.51757812 C-99.91447183 317.89596487 -108.734263 293.89495565 -108.80383301 267.89901733 C-108.79606028 266.09869205 -108.78786789 264.29836854 -108.77929688 262.49804688 C-108.78473223 260.55269857 -108.79186273 258.60735438 -108.80053711 256.66201782 C-108.81860545 251.43054015 -108.81177181 246.19938181 -108.79902077 240.96789932 C-108.78880682 235.4612576 -108.79830953 229.95464099 -108.80456543 224.44799805 C-108.8118176 215.20519158 -108.80231823 205.96251348 -108.78320312 196.71972656 C-108.76143917 186.07401967 -108.76849226 175.42861936 -108.79050875 164.78291988 C-108.80873232 155.59934609 -108.81118721 146.41586393 -108.80075407 137.23227787 C-108.79455723 131.7663223 -108.79357751 126.30051024 -108.80690002 120.83456421 C-108.81855977 115.69280206 -108.81025025 110.55143044 -108.787323 105.40970993 C-108.78208948 103.53660095 -108.78345618 101.66345838 -108.79237366 99.79036331 C-108.91329765 71.78184605 -100.16552576 47.72094076 -80.26171875 27.51757812 C-57.55506189 4.77295027 -30.73746 -0.10783562 0 0 Z " fill="#F8EC2E" transform="translate(148.26171875,73.482421875)"/>
<path d="M0 0 C142.56 0 285.12 0 432 0 C429.75747488 26.91030144 418.11980023 48.89217979 398 67 C381.66285278 80.578225 360.29070629 88.15100343 339.21855164 88.14717102 C338.13102767 88.15084771 337.04350371 88.1545244 335.92302448 88.1583125 C332.27769837 88.16932817 328.63240079 88.17318965 324.98706055 88.17700195 C322.37339691 88.18326834 319.75973416 88.1899153 317.14607239 88.19691467 C309.30118807 88.21664205 301.45630253 88.22674179 293.61139962 88.23564246 C289.91023677 88.24003257 286.20907533 88.2453976 282.50791359 88.25063133 C270.19175737 88.26764194 257.87560201 88.28213294 245.55943584 88.28938007 C242.3660399 88.29128974 239.17264396 88.29321011 235.97924805 88.29516602 C234.78879934 88.29589163 234.78879934 88.29589163 233.57430116 88.2966319 C220.73713438 88.30492037 207.90006114 88.33023798 195.06293514 88.36274669 C181.86072637 88.39590517 168.65856498 88.41383685 155.45631438 88.41702431 C148.0529928 88.41918159 140.64980751 88.42781451 133.24652672 88.45348549 C126.9372859 88.47531319 120.62821448 88.48318429 114.31894019 88.47351871 C111.10659427 88.46900818 107.89466586 88.47290093 104.68235397 88.49028015 C74.26826333 88.64551889 49.24645688 81.91660826 27 60 C12.09876739 45.12364424 3.58469905 26.58038986 0 6 C0 4.02 0 2.04 0 0 Z " fill="#E83634" transform="translate(40,350)"/>
<path d="M0 0 C1.63128594 -0.00551503 1.63128594 -0.00551503 3.29552716 -0.01114148 C6.94085327 -0.02215715 10.58615084 -0.02601863 14.23149109 -0.02983093 C16.84515472 -0.03609732 19.45881747 -0.04274428 22.07247925 -0.04974365 C29.91736357 -0.06947103 37.7622491 -0.07957077 45.60715201 -0.08847144 C49.30831487 -0.09286155 53.00947631 -0.09822658 56.71063805 -0.10346031 C69.02679427 -0.12047092 81.34294963 -0.13496192 93.65911579 -0.14220905 C96.85251174 -0.14411872 100.04590767 -0.14603908 103.23930359 -0.147995 C104.4297523 -0.14872061 104.4297523 -0.14872061 105.64425047 -0.14946087 C118.48141726 -0.15774935 131.3184905 -0.18306696 144.1556165 -0.21557567 C157.35782527 -0.24873415 170.55998665 -0.26666583 183.76223725 -0.26985329 C191.16555884 -0.27201057 198.56874413 -0.28064349 205.97202492 -0.30631447 C212.28126574 -0.32814217 218.59033715 -0.33601327 224.89961145 -0.32634769 C228.11195737 -0.32183716 231.32388577 -0.32572991 234.53619766 -0.34310913 C265.73191185 -0.50233741 290.60020525 6.81432971 313.21855164 29.14717102 C327.83064756 43.73394269 335.45043818 62.17616972 339.21855164 82.14717102 C339.21855164 83.13717102 339.21855164 84.12717102 339.21855164 85.14717102 C196.65855164 85.14717102 54.09855164 85.14717102 -92.78144836 85.14717102 C-88.57999195 57.8377043 -76.76736491 34.2745202 -54.09394836 17.45967102 C-37.65363106 6.62931981 -19.75577638 -0.003593 0 0 Z " fill="#E83534" transform="translate(132.7814483642578,73.85282897949219)"/>
</svg>
