<?xml version="1.0" encoding="UTF-8"?>
<svg version="1.1" xmlns="http://www.w3.org/2000/svg" width="512" height="512">
<path d="M0 0 C165.66 0 331.32 0 502 0 C502 111.54 502 223.08 502 338 C336.34 338 170.68 338 0 338 C0 226.46 0 114.92 0 0 Z " fill="#FDCB09" transform="translate(5,87)"/>
<path d="M0 0 C93.72 0 187.44 0 284 0 C284 42.9 284 85.8 284 130 C190.28 130 96.56 130 0 130 C0 87.1 0 44.2 0 0 Z " fill="#005294" transform="translate(219,291)"/>
<path d="M0 0 C93.72 0 187.44 0 284 0 C284 42.57 284 85.14 284 129 C190.28 129 96.56 129 0 129 C0 86.43 0 43.86 0 0 Z " fill="#005294" transform="translate(219,92)"/>
<path d="M0 0 C46.2 0 92.4 0 140 0 C140 42.9 140 85.8 140 130 C93.8 130 47.6 130 0 130 C0 87.1 0 44.2 0 0 Z " fill="#015294" transform="translate(9,291)"/>
<path d="M0 0 C46.2 0 92.4 0 140 0 C140 42.9 140 85.8 140 130 C93.8 130 47.6 130 0 130 C0 87.1 0 44.2 0 0 Z " fill="#015294" transform="translate(9,91)"/>
<path d="M0 0 C165.66 0 331.32 0 502 0 C502 111.54 502 223.08 502 338 C336.34 338 170.68 338 0 338 C0 226.46 0 114.92 0 0 Z M4 4 C4 112.9 4 221.8 4 334 C167.02 334 330.04 334 498 334 C498 225.43 498 116.86 498 5 C396.85284981 4.59859511 396.85284981 4.59859511 295.70553827 4.23751712 C293.41084021 4.22998277 291.11614216 4.22244668 288.82144421 4.21487871 C242.00857256 4.06052287 195.19594606 3.95177065 148.3828125 3.93359375 C147.21667467 3.93311389 146.05053683 3.93263403 144.84906149 3.93213964 C97.89936719 3.91388154 50.94967225 3.96636843 4 4 Z " fill="#D1D1CF" transform="translate(5,87)"/>
</svg>
