<?xml version="1.0" encoding="UTF-8"?>
<svg version="1.1" xmlns="http://www.w3.org/2000/svg" width="512" height="512">
<path d="M0 0 C3.65468642 0.00564362 7.3093682 0.008462 10.96405792 0.0110817 C44.81278562 0.04635304 78.54174147 0.28998083 112.29621124 3.05511856 C115.83934198 3.34261046 119.38345104 3.61520704 122.92786407 3.88641739 C130.61264287 4.47878474 138.29387596 5.1087863 145.97425079 5.75555801 C147.15178925 5.85275131 148.3293277 5.94994461 149.54254913 6.05008316 C181.89623393 8.77087829 210.68776682 16.52007249 232.53675079 42.31805801 C253.25274859 69.37372746 253.97009162 101.31246304 256.59925079 133.88055801 C256.68142853 134.88049789 256.76360626 135.88043777 256.84827423 136.91067886 C257.48325016 144.70865825 258.03504523 152.51039507 258.53675079 160.31805801 C258.58146767 161.01067482 258.62618454 161.70329163 258.67225647 162.41689682 C260.51917063 191.32864609 260.8532304 220.19117597 260.79749298 249.15594864 C260.7860995 255.12165468 260.79288812 261.08718221 260.80436802 267.05288219 C260.85090221 295.5321522 260.37183092 323.89461864 258.53675079 352.31805801 C258.45406952 353.60476395 258.37138824 354.89146988 258.28620148 356.2171669 C257.78898375 363.73557904 257.2169052 371.24616883 256.59925079 378.75555801 C256.5127124 379.82441238 256.42617401 380.89326675 256.33701324 381.99451065 C255.76001259 389.10441819 255.15923233 396.21199323 254.53675079 403.31805801 C254.43523712 404.48446823 254.43523712 404.48446823 254.33167267 405.67444229 C252.11571584 430.90165436 247.2437623 454.09237946 229.53675079 473.31805801 C228.72721954 474.2191127 227.91768829 475.12016739 227.08362579 476.04852676 C209.34851532 494.84670673 185.89095652 502.93596237 160.66175079 505.38055801 C159.0434722 505.54543479 157.42522755 505.71064502 155.80701447 505.87616348 C106.94448596 510.78774391 58.08602786 512.71374322 8.99024963 512.63591385 C5.41865178 512.63047332 1.84706055 512.62810626 -1.72454071 512.62604141 C-35.71055089 512.59543005 -69.56417955 512.24213412 -103.46013641 509.55560684 C-106.5998267 509.30725462 -109.74017644 509.06890447 -112.88072968 508.83172989 C-146.74386349 506.25057221 -146.74386349 506.25057221 -163.26793671 503.82977676 C-164.07680832 503.71283463 -164.88567993 503.59589249 -165.71906281 503.47540665 C-183.11223301 500.80861538 -199.43572664 493.15546433 -212.46324921 481.31805801 C-213.36688202 480.5072377 -214.27051483 479.69641739 -215.20153046 478.86102676 C-243.51419044 452.11476567 -244.58787857 415.14774412 -247.52574921 378.75555801 C-247.60792694 377.75561813 -247.69010468 376.75567825 -247.77477264 375.72543716 C-248.40974858 367.92745777 -248.96154364 360.12572096 -249.46324921 352.31805801 C-249.53032452 351.2791328 -249.53032452 351.2791328 -249.59875488 350.21921921 C-251.44566904 321.30746994 -251.77972882 292.44494005 -251.72399139 263.48016739 C-251.71259792 257.51446135 -251.71938653 251.54893381 -251.73086643 245.58323383 C-251.77740063 217.10396382 -251.29832933 188.74149738 -249.46324921 160.31805801 C-249.38056793 159.03135208 -249.29788666 157.74464615 -249.21269989 156.41894913 C-248.71548217 148.90053699 -248.14340361 141.3899472 -247.52574921 133.88055801 C-247.43921082 132.81170364 -247.35267242 131.74284927 -247.26351166 130.64160538 C-246.68651101 123.53169784 -246.08573074 116.42412279 -245.46324921 109.31805801 C-245.39557343 108.5404512 -245.32789764 107.76284439 -245.25817108 106.96167374 C-243.04221426 81.73446166 -238.17026071 58.54373657 -220.46324921 39.31805801 C-219.65371796 38.41700333 -218.84418671 37.51594864 -218.01012421 36.58758926 C-191.2837212 8.25916502 -154.2835744 7.19267296 -117.90074921 4.25555801 C-116.90080933 4.17338028 -115.90086945 4.09120255 -114.87062836 4.00653458 C-107.07265468 3.37155911 -99.27098101 2.81868904 -91.46324921 2.31805801 C-90.42101007 2.25120363 -90.42101007 2.25120363 -89.35771561 2.18299866 C-59.57604753 0.29543581 -29.83521169 -0.04680397 0 0 Z " fill="#F40055" transform="translate(251.46324920654297,-0.3180580139160156)"/>
<path d="M0 0 C1.03505173 -0.01283524 2.07010345 -0.02567047 3.13652039 -0.03889465 C4.8146154 -0.04997505 4.8146154 -0.04997505 6.52661133 -0.0612793 C7.67978348 -0.06935104 8.83295563 -0.07742279 10.02107239 -0.08573914 C12.46471656 -0.09957874 14.90838006 -0.11030144 17.35205078 -0.11816406 C21.07662979 -0.13535033 24.80031513 -0.17923625 28.5246582 -0.22338867 C30.90030273 -0.23351809 33.27595479 -0.24203341 35.65161133 -0.2487793 C36.76022018 -0.26628738 37.86882904 -0.28379547 39.0110321 -0.30183411 C46.19010733 -0.28184684 52.16386289 0.50446156 57.47453308 5.69535828 C61.10243833 9.90655042 62.04646725 12.27700395 62.03466797 17.72827148 C62.03459244 18.88932404 62.03451691 20.05037659 62.03443909 21.24661255 C62.0292778 22.50496918 62.02411652 23.76332581 62.01879883 25.05981445 C62.01667641 26.98662552 62.01667641 26.98662552 62.01451111 28.95236206 C62.01069169 32.36857037 62.00086631 35.78473621 61.98980713 39.20092773 C61.97958065 42.68643621 61.97501083 46.17195155 61.9699707 49.6574707 C61.95924353 56.49733191 61.942174 63.33716489 61.92114258 70.17700195 C62.62191925 70.17034012 63.32269592 70.16367828 64.04470825 70.15681458 C70.66506061 70.09657836 77.28533593 70.05096424 83.90590096 70.02156544 C87.30921289 70.00594279 90.71229743 69.98476761 94.11547852 69.95068359 C98.03244254 69.91170161 101.94931609 69.89726455 105.86645508 69.8840332 C107.69021164 69.86080742 107.69021164 69.86080742 109.55081177 69.83711243 C116.2251315 69.83578665 121.35649864 69.9324838 126.53051758 74.6418457 C130.19920745 79.37847613 132.15824235 82.42826818 132.22753906 88.46118164 C132.24352646 89.51617859 132.25951385 90.57117554 132.27598572 91.65814209 C132.28134842 92.79358459 132.28671112 93.9290271 132.29223633 95.09887695 C132.3012648 96.2728302 132.31029327 97.44678345 132.31959534 98.65631104 C132.33410334 101.14104664 132.34298593 103.62582049 132.34667969 106.1105957 C132.35855486 109.89901762 132.40772125 113.68579976 132.45825195 117.47387695 C132.46771879 119.89053569 132.47495258 122.30720441 132.47973633 124.72387695 C132.49926865 125.85122253 132.51880096 126.97856812 132.53892517 128.14007568 C132.49922103 135.114451 131.52622877 139.81122331 126.92114258 145.17700195 C122.4796964 149.30120198 119.32221099 150.30371513 113.34814453 150.29052734 C112.20718826 150.29045181 111.06623199 150.29037628 109.89070129 150.29029846 C108.04371895 150.28255653 108.04371895 150.28255653 106.15942383 150.2746582 C104.26802925 150.27253578 104.26802925 150.27253578 102.33842468 150.27037048 C98.98962549 150.2657177 95.64089447 150.25673537 92.29211426 150.2456665 C88.87354114 150.23542883 85.45496098 150.23086781 82.03637695 150.22583008 C75.33127997 150.21479295 68.62621521 150.19804882 61.92114258 150.17700195 C61.93224564 150.8733374 61.94334869 151.56967285 61.95478821 152.28710938 C62.05533479 158.87732506 62.13128081 165.46732401 62.18020344 172.05813599 C62.20620189 175.44591219 62.24141636 178.83305007 62.29833984 182.22045898 C62.35920219 186.12280937 62.38740305 190.02426243 62.40942383 193.92700195 C62.44813347 195.73527466 62.44813347 195.73527466 62.48762512 197.58007812 C62.48997857 204.68787802 61.98013255 209.90787857 56.92114258 215.17700195 C50.87684151 220.82848911 44.56487624 220.91329845 36.60864258 220.84106445 C35.44034912 220.84584808 34.27205566 220.85063171 33.06835938 220.8555603 C30.60748949 220.85895055 28.14657403 220.84980986 25.68579102 220.82885742 C21.93248472 220.80208286 18.18216905 220.82863881 14.42895508 220.8605957 C12.03051102 220.85729145 9.63206881 220.85088492 7.23364258 220.84106445 C6.11884521 220.85118561 5.00404785 220.86130676 3.85546875 220.87173462 C-3.06266982 220.7683536 -7.74743264 219.72534756 -13.07885742 215.17700195 C-17.20305744 210.73555577 -18.2055706 207.57807037 -18.19238281 201.60400391 C-18.19226952 199.8925695 -18.19226952 199.8925695 -18.19215393 198.14656067 C-18.18699265 196.91523911 -18.18183136 195.68391754 -18.17651367 194.4152832 C-18.17509872 193.15435349 -18.17368378 191.89342377 -18.17222595 190.59428406 C-18.16757317 187.24548487 -18.15859084 183.89675384 -18.14752197 180.54797363 C-18.1372843 177.12940052 -18.13272328 173.71082036 -18.12768555 170.29223633 C-18.11664841 163.58713934 -18.09990429 156.88207458 -18.07885742 150.17700195 C-18.76488541 150.18366379 -19.45091339 150.19032562 -20.1577301 150.19718933 C-27.31181136 150.26367095 -34.46580452 150.30885603 -41.62011719 150.34179688 C-44.28858814 150.35516556 -46.9565746 150.37731801 -49.625 150.40332031 C-53.46514994 150.4397978 -57.3049718 150.45675054 -61.14526367 150.4699707 C-62.92846764 150.49319649 -62.92846764 150.49319649 -64.74769592 150.51689148 C-71.63521175 150.51828414 -77.33623621 150.38863342 -82.78588867 145.7121582 C-86.36241502 140.94766904 -88.32012476 137.88169571 -88.36938477 131.87695312 C-88.38214447 130.81872849 -88.39490417 129.76050385 -88.40805054 128.67021179 C-88.41027618 127.53163223 -88.41250183 126.39305267 -88.41479492 125.2199707 C-88.42145172 124.04364578 -88.42810852 122.86732086 -88.43496704 121.65534973 C-88.44509203 119.16640791 -88.44978411 116.67743896 -88.44946289 114.18847656 C-88.45382896 110.38927171 -88.490133 106.59123511 -88.52807617 102.79223633 C-88.5339458 100.37231842 -88.53791421 97.952395 -88.53979492 95.5324707 C-88.55416595 94.39996384 -88.56853699 93.26745697 -88.58334351 92.10063171 C-88.54045868 84.65948295 -87.6647761 80.00312571 -82.44604492 74.43481445 C-78.03700789 71.08763974 -76.02851241 70.0515698 -70.52758789 70.06347656 C-69.36653534 70.06355209 -68.20548279 70.06362762 -67.00924683 70.06370544 C-65.7508902 70.06886673 -64.49253357 70.07402802 -63.19604492 70.0793457 C-61.91150421 70.08076065 -60.6269635 70.0821756 -59.30349731 70.08363342 C-55.88728901 70.08745284 -52.47112316 70.09727822 -49.05493164 70.1083374 C-45.56942316 70.11856388 -42.08390783 70.1231337 -38.59838867 70.12817383 C-31.75852747 70.138901 -24.91869448 70.15597053 -18.07885742 70.17700195 C-18.08773987 69.4636972 -18.09662231 68.75039246 -18.10577393 68.01547241 C-18.18608215 61.27742461 -18.2469038 54.5395113 -18.28610611 47.80109215 C-18.30693853 44.33715696 -18.33517481 40.87361882 -18.38061523 37.40991211 C-18.43258327 33.42347037 -18.45183875 29.43718671 -18.46948242 25.45043945 C-18.49012756 24.21272797 -18.51077271 22.97501648 -18.53204346 21.69979858 C-18.53406985 13.91446966 -17.93201292 10.14320846 -12.48120117 4.5324707 C-8.20820712 1.12547011 -5.39130004 0.05827417 0 0 Z " fill="#F0F7FE" transform="translate(234.078857421875,145.822998046875)"/>
</svg>
